<svg width="18" height="21" viewBox="0 0 18 21" fill="none" xmlns="http://www.w3.org/2000/svg">
<path fill-rule="evenodd" clip-rule="evenodd" d="M8.99994 4.5C7.37897 4.50062 5.80183 5.02639 4.50475 5.99856C3.20766 6.97072 2.26045 8.33696 1.80498 9.89262C1.34952 11.4483 1.41031 13.1096 1.97827 14.6278C2.54622 16.1461 3.59076 17.4394 4.95543 18.3142C6.3201 19.1889 7.93145 19.598 9.54813 19.4801C11.1648 19.3623 12.6998 18.7238 13.9232 17.6604C15.1465 16.597 15.9925 15.1658 16.3342 13.5813C16.676 11.9968 16.4952 10.3442 15.8189 8.871C15.7453 8.69189 15.7438 8.49126 15.8148 8.31108C15.8858 8.13091 16.0237 7.98516 16.1996 7.90435C16.3756 7.82353 16.576 7.81391 16.7589 7.8775C16.9418 7.94109 17.093 8.07295 17.1809 8.2455C17.9924 10.0134 18.2093 11.9966 17.799 13.8981C17.3888 15.7996 16.3735 17.5169 14.9053 18.793C13.4371 20.069 11.595 20.835 9.6549 20.9762C7.7148 21.1175 5.78117 20.6263 4.14364 19.5764C2.50611 18.5264 1.25283 16.9742 0.571528 15.1522C-0.10977 13.3301 -0.182411 11.3364 0.364486 9.46967C0.911383 7.6029 2.04838 5.96357 3.60516 4.79723C5.16194 3.63089 7.05471 3.00033 8.99994 3V4.5Z" fill="#7749F8"/>
<path d="M9 6.69913V0.801129C9.00003 0.729874 9.02035 0.660101 9.0586 0.599981C9.09685 0.539861 9.15143 0.491882 9.21596 0.461663C9.28049 0.431444 9.3523 0.420236 9.42297 0.42935C9.49364 0.438465 9.56025 0.467526 9.615 0.513129L13.155 3.46213C13.335 3.61213 13.335 3.88813 13.155 4.03813L9.615 6.98713C9.56025 7.03273 9.49364 7.06179 9.42297 7.07091C9.3523 7.08002 9.28049 7.06881 9.21596 7.0386C9.15143 7.00838 9.09685 6.9604 9.0586 6.90028C9.02035 6.84016 9.00003 6.77038 9 6.69913Z" fill="#7749F8"/>
</svg>
